<svg xmlns="http://www.w3.org/2000/svg" width="302" height="93" viewBox="0 0 302 93" version="1.1"><path d="M 205.750 5.708 C 199.287 8.781, 194 11.647, 194 12.078 C 194 12.509, 194.952 13.005, 196.116 13.180 C 197.660 13.414, 189.867 19.473, 167.243 35.629 L 136.256 57.759 132.878 42.801 C 131.020 34.575, 129.205 27.359, 128.844 26.765 C 128.441 26.103, 117.253 32.368, 99.844 43.006 C 84.255 52.531, 71.346 60.443, 71.159 60.587 C 70.464 61.121, 72.065 64.585, 74.282 67.348 L 76.568 70.196 98.853 56.501 C 111.110 48.968, 121.280 42.961, 121.454 43.152 C 121.627 43.344, 123.434 50.700, 125.469 59.500 C 127.504 68.300, 129.265 75.597, 129.382 75.715 C 129.500 75.833, 144.778 65.033, 163.334 51.715 C 211.851 16.893, 209.189 18.688, 210.099 20.160 C 210.535 20.865, 211.070 21.230, 211.289 20.971 C 212.200 19.893, 223 1.066, 223 0.556 C 223 -1.255, 215.992 0.838, 205.750 5.708 M 270.269 23.693 C 271.242 23.947, 272.592 23.930, 273.269 23.656 C 273.946 23.382, 273.150 23.175, 271.500 23.195 C 269.850 23.215, 269.296 23.439, 270.269 23.693 M 40.872 58.750 C 39.603 60.369, 39.650 60.390, 41.500 59.033 C 42.600 58.226, 43.688 57.439, 43.917 57.283 C 44.146 57.127, 43.863 57, 43.289 57 C 42.715 57, 41.627 57.788, 40.872 58.750 M 41.500 78.824 C 35.404 83.026, 35.563 90, 41.754 90 C 43.829 90, 51 86.545, 51 85.546 C 51 84.409, 46.763 76.007, 46.203 76.033 C 45.816 76.051, 43.700 77.307, 41.500 78.824" stroke="none" fill="#99000a" fill-rule="evenodd"/><path d="M 217.500 19.591 C 216.400 19.827, 213.091 20.508, 210.146 21.105 C 202.797 22.594, 198.720 25.241, 196.692 29.837 C 194.578 34.628, 187.193 43.511, 166.908 65.659 C 158.264 75.097, 150.887 83.781, 150.514 84.957 C 148.912 90.002, 155.512 91.383, 167.601 88.531 C 176.864 86.347, 179.057 85.033, 180.999 80.502 C 183.332 75.061, 191.644 64.922, 210.519 44.500 C 227.559 26.062, 229.195 23.766, 226.914 21.485 C 225.313 19.885, 220.575 18.931, 217.500 19.591 M 243.676 20.443 C 241.572 21.198, 239.744 21.970, 239.613 22.158 C 231.949 33.176, 226.765 39.460, 212.627 54.865 C 187.699 82.028, 186 84.023, 186 86.130 C 186 89.499, 190.134 90.493, 198.648 89.170 C 209.555 87.474, 214.546 85.022, 216.472 80.412 C 217.332 78.355, 220.840 73.192, 224.268 68.939 L 230.500 61.207 244.500 60.854 C 257.813 60.517, 258.762 60.355, 263.833 57.546 C 271.722 53.176, 276.396 46.599, 273.073 44.545 C 272.563 44.230, 266.737 44.466, 260.125 45.069 C 253.513 45.673, 247.394 46.017, 246.527 45.833 C 245.350 45.585, 246.145 44.137, 249.659 40.129 L 254.367 34.758 265.433 35.472 C 285.078 36.738, 283.981 36.873, 290.544 32.396 C 297.447 27.687, 300.084 23.945, 298.392 21.259 C 297.389 19.667, 294.918 19.480, 272.392 19.285 C 253.371 19.121, 246.598 19.394, 243.676 20.443 M 60.369 21.493 C 51.311 23.462, 48.366 25.345, 45.504 30.993 C 42.838 36.254, 36.091 44.412, 19.034 63 C 0.617 83.069, 0 83.831, 0 86.499 C -0 90.449, 3.398 91.483, 11.658 90.050 C 21.120 88.408, 26.671 85.770, 28.769 81.919 C 29.721 80.171, 32.957 75.611, 35.961 71.785 L 41.421 64.828 44.702 71.664 C 46.506 75.424, 48.951 80.820, 50.136 83.655 C 52.565 89.470, 54.909 91, 61.387 91 C 66.561 91, 75.884 86.604, 81.569 81.485 C 85.334 78.094, 85.416 77.894, 83.500 76.722 C 79.171 74.077, 73.830 67.313, 70.457 60.206 C 68.510 56.105, 67.048 52.632, 67.209 52.489 C 67.369 52.346, 73.350 49.732, 80.500 46.681 C 109.116 34.470, 118 29.315, 118 24.922 C 118 22.472, 113.121 20, 108.284 20 C 105.605 20, 102.387 21.231, 97.484 24.133 C 90.977 27.984, 81.039 32.885, 68.066 38.641 L 62.633 41.052 68.652 34.776 C 71.963 31.324, 75.255 27.405, 75.969 26.067 C 77.124 23.901, 77.020 23.434, 75.022 21.817 C 72.422 19.711, 68.916 19.633, 60.369 21.493 M 256 23.756 L 242.500 24.104 238.292 30.302 C 235.977 33.711, 224.383 47.075, 212.527 60 C 200.671 72.925, 191.094 84.175, 191.244 85 C 191.610 87.011, 197.210 87.362, 203.426 85.765 C 207.721 84.662, 208.647 83.941, 210.649 80.145 C 213.288 75.139, 223.119 62.838, 226.787 59.953 C 228.969 58.236, 230.891 58, 242.667 58 C 257.002 58, 260.974 57.091, 264.858 52.922 C 268.538 48.972, 267.695 48.249, 260.529 49.209 C 256.969 49.686, 249.909 49.946, 244.839 49.788 L 235.621 49.500 243.560 40.645 L 251.500 31.790 264.500 32.323 C 271.650 32.617, 278.655 33.151, 280.066 33.510 C 282.049 34.014, 283.638 33.395, 287.066 30.780 C 289.638 28.819, 291.500 26.580, 291.500 25.449 C 291.500 23.638, 290.722 23.497, 280.500 23.454 C 274.450 23.429, 263.425 23.565, 256 23.756 M 62 24.703 C 53.555 26.156, 52.221 26.947, 49.209 32.283 C 46.104 37.785, 37.517 47.903, 17.822 69.268 C 4.371 83.858, 3.400 85.257, 5.512 87.010 C 6.663 87.965, 8.356 87.971, 13.310 87.036 C 20.987 85.587, 20.957 85.607, 24.212 79.969 C 26.980 75.175, 41.540 58, 42.837 58 C 43.798 58, 47.251 65.007, 51.706 76 C 53.601 80.675, 55.904 85.334, 56.824 86.353 C 59.378 89.183, 66.388 88.134, 72.750 83.969 L 77.884 80.608 74.937 78.816 C 70.369 76.038, 57.779 54.737, 59.673 52.992 C 60.128 52.573, 68.600 48.782, 78.500 44.569 C 102.101 34.524, 110.500 30.066, 110.500 27.583 C 110.500 26.364, 109.461 25.320, 107.642 24.714 C 105.133 23.878, 103.126 24.617, 91.142 30.792 C 79.218 36.936, 59.016 46.430, 52.222 49.082 C 50.184 49.878, 50.053 49.769, 50.978 48.041 C 51.546 46.980, 52.449 45.840, 52.985 45.509 C 53.521 45.178, 57.635 40.808, 62.127 35.798 C 69.721 27.328, 70.165 26.594, 68.456 25.344 C 67.445 24.605, 66.141 24.061, 65.559 24.136 C 64.976 24.211, 63.375 24.466, 62 24.703 M 207.168 25.160 C 203.617 25.971, 202.585 26.750, 201.447 29.472 C 199.506 34.119, 192.560 42.547, 172.686 64.375 C 163.234 74.757, 155.356 84.094, 155.180 85.125 C 154.906 86.734, 155.517 87, 159.488 87 C 162.032 87, 166.117 86.496, 168.564 85.880 C 172.402 84.913, 173.264 84.192, 174.841 80.630 C 177.070 75.593, 183.492 67.882, 204.775 44.682 C 213.766 34.882, 220.946 26.332, 220.733 25.682 C 220.234 24.168, 212.765 23.880, 207.168 25.160" stroke="none" fill="#070707" fill-rule="evenodd"/><path d="M 217.500 19.591 C 216.400 19.827, 213.091 20.508, 210.146 21.105 C 202.797 22.594, 198.720 25.241, 196.692 29.837 C 194.578 34.628, 187.193 43.511, 166.908 65.659 C 158.264 75.097, 150.887 83.781, 150.514 84.957 C 148.912 90.002, 155.512 91.383, 167.601 88.531 C 176.864 86.347, 179.057 85.033, 180.999 80.502 C 183.332 75.061, 191.644 64.922, 210.519 44.500 C 227.559 26.062, 229.195 23.766, 226.914 21.485 C 225.313 19.885, 220.575 18.931, 217.500 19.591 M 243.676 20.443 C 241.572 21.198, 239.744 21.970, 239.613 22.158 C 231.949 33.176, 226.765 39.460, 212.627 54.865 C 187.699 82.028, 186 84.023, 186 86.130 C 186 89.499, 190.134 90.493, 198.648 89.170 C 209.555 87.474, 214.546 85.022, 216.472 80.412 C 217.332 78.355, 220.840 73.192, 224.268 68.939 L 230.500 61.207 244.500 60.854 C 257.813 60.517, 258.762 60.355, 263.833 57.546 C 271.722 53.176, 276.396 46.599, 273.073 44.545 C 272.563 44.230, 266.737 44.466, 260.125 45.069 C 253.513 45.673, 247.394 46.017, 246.527 45.833 C 245.350 45.585, 246.145 44.137, 249.659 40.129 L 254.367 34.758 265.433 35.472 C 285.078 36.738, 283.981 36.873, 290.544 32.396 C 297.447 27.687, 300.084 23.945, 298.392 21.259 C 297.389 19.667, 294.918 19.480, 272.392 19.285 C 253.371 19.121, 246.598 19.394, 243.676 20.443 M 60.369 21.493 C 51.311 23.462, 48.366 25.345, 45.504 30.993 C 42.838 36.254, 36.091 44.412, 19.034 63 C 0.617 83.069, 0 83.831, 0 86.499 C -0 90.449, 3.398 91.483, 11.658 90.050 C 21.120 88.408, 26.671 85.770, 28.769 81.919 C 29.721 80.171, 32.957 75.611, 35.961 71.785 L 41.421 64.828 44.702 71.664 C 46.506 75.424, 48.951 80.820, 50.136 83.655 C 52.565 89.470, 54.909 91, 61.387 91 C 66.561 91, 75.884 86.604, 81.569 81.485 C 85.334 78.094, 85.416 77.894, 83.500 76.722 C 79.171 74.077, 73.830 67.313, 70.457 60.206 C 68.510 56.105, 67.048 52.632, 67.209 52.489 C 67.369 52.346, 73.350 49.732, 80.500 46.681 C 109.116 34.470, 118 29.315, 118 24.922 C 118 22.472, 113.121 20, 108.284 20 C 105.605 20, 102.387 21.231, 97.484 24.133 C 90.977 27.984, 81.039 32.885, 68.066 38.641 L 62.633 41.052 68.652 34.776 C 71.963 31.324, 75.255 27.405, 75.969 26.067 C 77.124 23.901, 77.020 23.434, 75.022 21.817 C 72.422 19.711, 68.916 19.633, 60.369 21.493 M 256 23.756 L 242.500 24.104 238.292 30.302 C 235.977 33.711, 224.383 47.075, 212.527 60 C 200.671 72.925, 191.094 84.175, 191.244 85 C 191.610 87.011, 197.210 87.362, 203.426 85.765 C 207.721 84.662, 208.647 83.941, 210.649 80.145 C 213.288 75.139, 223.119 62.838, 226.787 59.953 C 228.969 58.236, 230.891 58, 242.667 58 C 257.002 58, 260.974 57.091, 264.858 52.922 C 268.538 48.972, 267.695 48.249, 260.529 49.209 C 256.969 49.686, 249.909 49.946, 244.839 49.788 L 235.621 49.500 243.560 40.645 L 251.500 31.790 264.500 32.323 C 271.650 32.617, 278.655 33.151, 280.066 33.510 C 282.049 34.014, 283.638 33.395, 287.066 30.780 C 289.638 28.819, 291.500 26.580, 291.500 25.449 C 291.500 23.638, 290.722 23.497, 280.500 23.454 C 274.450 23.429, 263.425 23.565, 256 23.756 M 62 24.703 C 53.555 26.156, 52.221 26.947, 49.209 32.283 C 46.104 37.785, 37.517 47.903, 17.822 69.268 C 4.371 83.858, 3.400 85.257, 5.512 87.010 C 6.663 87.965, 8.356 87.971, 13.310 87.036 C 20.987 85.587, 20.957 85.607, 24.212 79.969 C 26.980 75.175, 41.540 58, 42.837 58 C 43.798 58, 47.251 65.007, 51.706 76 C 53.601 80.675, 55.904 85.334, 56.824 86.353 C 59.378 89.183, 66.388 88.134, 72.750 83.969 L 77.884 80.608 74.937 78.816 C 70.369 76.038, 57.779 54.737, 59.673 52.992 C 60.128 52.573, 68.600 48.782, 78.500 44.569 C 102.101 34.524, 110.500 30.066, 110.500 27.583 C 110.500 26.364, 109.461 25.320, 107.642 24.714 C 105.133 23.878, 103.126 24.617, 91.142 30.792 C 79.218 36.936, 59.016 46.430, 52.222 49.082 C 50.184 49.878, 50.053 49.769, 50.978 48.041 C 51.546 46.980, 52.449 45.840, 52.985 45.509 C 53.521 45.178, 57.635 40.808, 62.127 35.798 C 69.721 27.328, 70.165 26.594, 68.456 25.344 C 67.445 24.605, 66.141 24.061, 65.559 24.136 C 64.976 24.211, 63.375 24.466, 62 24.703 M 207.168 25.160 C 203.617 25.971, 202.585 26.750, 201.447 29.472 C 199.506 34.119, 192.560 42.547, 172.686 64.375 C 163.234 74.757, 155.356 84.094, 155.180 85.125 C 154.906 86.734, 155.517 87, 159.488 87 C 162.032 87, 166.117 86.496, 168.564 85.880 C 172.402 84.913, 173.264 84.192, 174.841 80.630 C 177.070 75.593, 183.492 67.882, 204.775 44.682 C 213.766 34.882, 220.946 26.332, 220.733 25.682 C 220.234 24.168, 212.765 23.880, 207.168 25.160" stroke="none" fill="#070707" fill-rule="evenodd"/><path d="M 258.500 23.762 L 242.500 24.078 238.835 29.789 C 236.819 32.930, 225.244 46.300, 213.113 59.500 C 200.981 72.700, 191.043 84.077, 191.028 84.781 C 190.980 86.962, 193.912 87.336, 201.045 86.061 C 207.868 84.842, 207.916 84.811, 210.820 79.666 C 213.624 74.696, 225.037 60.284, 227.371 58.765 C 227.992 58.361, 234.658 58.024, 242.185 58.015 C 249.712 58.007, 257.137 57.521, 258.685 56.936 C 261.488 55.877, 267 51.242, 267 49.944 C 267 49.569, 259.700 49.496, 250.778 49.780 L 234.557 50.298 242.919 41.149 L 251.280 32 262.390 32.024 C 268.501 32.038, 275.495 32.509, 277.933 33.071 C 282.050 34.020, 282.654 33.884, 286.407 31.165 C 294.870 25.035, 293.691 22.914, 282 23.239 C 277.875 23.353, 267.300 23.589, 258.500 23.762 M 96.500 28.231 C 89.514 32.421, 51.857 50, 49.866 50 C 49.289 50, 53.357 45.116, 58.908 39.147 C 64.459 33.178, 69 27.553, 69 26.647 C 69 24.640, 63.253 24.404, 56.402 26.129 C 52.821 27.031, 51.657 27.886, 50.614 30.379 C 48.754 34.828, 39.594 45.870, 21.066 66 C 3.508 85.076, 2.088 87.688, 9.500 87.280 C 17.947 86.814, 21.525 85.152, 23.742 80.664 C 25.668 76.766, 41.128 57.838, 42.893 57.217 C 43.708 56.930, 46.165 62.072, 52.065 76.410 C 55.871 85.659, 57.884 88, 62.033 88 C 65.263 88, 73.843 84.099, 75.800 81.740 C 76.739 80.610, 76.512 80.077, 74.678 79.095 C 70.659 76.944, 57.895 54.691, 59.675 52.938 C 60.129 52.490, 69.028 48.475, 79.452 44.013 C 107.567 31.980, 112.906 28.827, 109.685 26.154 C 106.555 23.556, 103.487 24.040, 96.500 28.231 M 207.790 25.196 C 203.605 26.090, 202.850 26.679, 201.005 30.490 C 198.550 35.561, 191.082 44.490, 170.223 67.293 C 161.774 76.529, 155.043 84.629, 155.264 85.293 C 155.879 87.141, 158.835 87.350, 166.068 86.057 C 172.328 84.938, 172.755 84.683, 174.327 81.119 C 176.408 76.404, 187.496 63.093, 206.405 42.611 C 214.473 33.872, 220.910 26.222, 220.709 25.611 C 220.229 24.147, 213.687 23.937, 207.790 25.196" stroke="none" fill="#f6f6f6" fill-rule="evenodd"/></svg>